<svg xmlns="http://www.w3.org/2000/svg" width="1240" height="776" viewBox="0 0 1240 776" fill="none" class="absolute -top-36 -z-100 hidden md:block md:scale-75 lg:scale-90"><path d="M852 0.750044C638.128 0.750035 464.75 174.128 464.75 388C464.75 601.872 638.128 775.25 852 775.25C1065.87 775.25 1239.25 601.872 1239.25 388C1239.25 174.128 1065.87 0.750053 852 0.750044Z" stroke="url(#paint0_linear_39_104)" stroke-width="1.5"></path><path d="M746 0.750044C532.128 0.750035 358.75 174.128 358.75 388C358.75 601.872 532.128 775.25 746 775.25C959.872 775.25 1133.25 601.872 1133.25 388C1133.25 174.128 959.872 0.750053 746 0.750044Z" stroke="url(#paint1_linear_39_104)" stroke-width="1.5"></path><path d="M640 0.750044C426.128 0.750035 252.75 174.128 252.75 388C252.75 601.872 426.128 775.25 640 775.25C853.872 775.25 1027.25 601.872 1027.25 388C1027.25 174.128 853.872 0.750053 640 0.750044Z" stroke="url(#paint2_linear_39_104)" stroke-width="1.5"></path><path d="M388 0.750044C601.872 0.750035 775.25 174.128 775.25 388C775.25 601.872 601.872 775.25 388 775.25C174.128 775.25 0.749992 601.872 0.749983 388C0.749974 174.128 174.128 0.750053 388 0.750044Z" stroke="url(#paint3_linear_39_104)" stroke-width="1.5"></path><path d="M494 0.750044C707.872 0.750035 881.25 174.128 881.25 388C881.25 601.872 707.872 775.25 494 775.25C280.128 775.25 106.75 601.872 106.75 388C106.75 174.128 280.128 0.750053 494 0.750044Z" stroke="url(#paint4_linear_39_104)" stroke-width="1.5"></path><path d="M600 0.750044C813.872 0.750035 987.25 174.128 987.25 388C987.25 601.872 813.872 775.25 600 775.25C386.128 775.25 212.75 601.872 212.75 388C212.75 174.128 386.128 0.750053 600 0.750044Z" stroke="url(#paint5_linear_39_104)" stroke-width="1.5"></path><defs><linearGradient id="paint0_linear_39_104" x1="1245.5" y1="342" x2="852" y2="388" gradientUnits="userSpaceOnUse"><stop></stop><stop offset="0.0001" stop-color="#E3E8EF"></stop><stop offset="0.257614" stop-color="#E3E8EF" stop-opacity="0"></stop></linearGradient><linearGradient id="paint1_linear_39_104" x1="1139.5" y1="342" x2="746" y2="388" gradientUnits="userSpaceOnUse"><stop></stop><stop offset="0.0001" stop-color="#E3E8EF"></stop><stop offset="0.257614" stop-color="#E3E8EF" stop-opacity="0"></stop></linearGradient><linearGradient id="paint2_linear_39_104" x1="1033.5" y1="342" x2="640" y2="388" gradientUnits="userSpaceOnUse"><stop></stop><stop offset="0.0001" stop-color="#E3E8EF"></stop><stop offset="0.257614" stop-color="#E3E8EF" stop-opacity="0"></stop></linearGradient><linearGradient id="paint3_linear_39_104" x1="-5.5" y1="342" x2="388" y2="388" gradientUnits="userSpaceOnUse"><stop></stop><stop offset="0.0001" stop-color="#E3E8EF"></stop><stop offset="0.257614" stop-color="#E3E8EF" stop-opacity="0"></stop></linearGradient><linearGradient id="paint4_linear_39_104" x1="100.5" y1="342" x2="494" y2="388" gradientUnits="userSpaceOnUse"><stop></stop><stop offset="0.0001" stop-color="#E3E8EF"></stop><stop offset="0.257614" stop-color="#E3E8EF" stop-opacity="0"></stop></linearGradient><linearGradient id="paint5_linear_39_104" x1="206.5" y1="342" x2="600" y2="388" gradientUnits="userSpaceOnUse"><stop></stop><stop offset="0.0001" stop-color="#E3E8EF"></stop><stop offset="0.257614" stop-color="#E3E8EF" stop-opacity="0"></stop></linearGradient></defs></svg>